# xmcd CD database file
#
# Track frame offsets:
#	150
#	15662
#	35803
#	51651
#	63108
#	75382
#	91740
#	106336
#	119094
#	130548
#	137854
#	150002
#	163607
#	176178
#
# Disc length: 2482 seconds
#
# Revision: 0
# Processed by: cddbd v1.5.2PL0 Copyright (c) Steve Scherf et al.
# Submitted via: CDex 1.51
#
DISCID=b109b00e
DTITLE=Wylie and the Wild West - Relic
DYEAR=2014
DGENRE=Country
TTITLE0=21st Century Blues
TTITLE1=Diet of Strange Places
TTITLE2=Hey Maria
TTITLE3=Hutterite Boogie
TTITLE4=Meadowlark
TTITLE5=Hello Heartache
TTITLE6=The Book
TTITLE7=Cutter's Waltz
TTITLE8=Why Why Why
TTITLE9=Chicken Feed
TTITLE10=Indian Love Call
TTITLE11=Rhythm Machine
TTITLE12=Without You
TTITLE13=Wylie and the Wild West - Big Whiskey
EXTD=YEAR: 2014
EXTT0=
EXTT1=
EXTT2=
EXTT3=
EXTT4=
EXTT5=
EXTT6=
EXTT7=
EXTT8=
EXTT9=
EXTT10=
EXTT11=
EXTT12=
EXTT13=
PLAYORDER=
